<?xml version="1.0" encoding="UTF-8" ?>
<!DOCTYPE svg PUBLIC "-//W3C//DTD SVG 1.1//EN" "http://www.w3.org/Graphics/SVG/1.1/DTD/svg11.dtd">
<svg width="200pt" height="200pt" viewBox="0 0 200 200" version="1.1" xmlns="http://www.w3.org/2000/svg">
<g id="#535a5eff">
<path fill="#535a5e" opacity="1.00" d=" M 18.38 31.48 C 23.39 31.16 28.46 31.02 33.46 31.50 C 34.35 34.16 33.81 37.04 33.76 39.79 C 29.59 40.11 25.34 39.51 21.22 40.29 C 21.02 40.55 20.62 41.07 20.42 41.34 C 20.08 45.65 19.89 50.09 20.56 54.37 C 22.19 55.63 24.64 54.87 26.61 55.16 C 26.62 52.32 26.64 49.48 26.75 46.64 C 30.02 46.72 33.57 45.85 36.65 47.09 C 36.82 52.49 37.29 58.04 36.40 63.38 C 31.94 63.83 27.45 63.49 22.99 63.59 C 19.31 63.58 15.05 63.61 12.25 60.84 C 9.69 58.25 10.10 54.34 10.02 51.01 C 10.18 46.51 9.69 41.96 10.41 37.49 C 11.07 33.75 14.87 31.72 18.38 31.48 Z" />
<path fill="#535a5e" opacity="1.00" d=" M 48.32 31.50 C 53.23 31.23 58.42 30.72 63.22 31.78 C 65.72 36.86 67.71 42.27 69.22 47.74 C 69.76 52.88 69.75 58.14 69.26 63.28 C 66.12 63.79 62.86 63.82 59.73 63.26 C 59.14 60.78 59.41 58.19 59.36 55.67 C 56.73 55.67 54.11 55.66 51.48 55.66 C 51.45 58.17 51.61 60.71 51.21 63.20 C 48.17 63.76 44.74 64.07 41.80 63.04 C 41.46 59.03 41.62 55.00 41.64 50.99 C 41.67 45.89 44.16 41.31 45.78 36.59 C 46.55 34.88 46.92 32.84 48.32 31.50 M 54.25 40.04 C 53.45 42.52 52.68 45.01 51.90 47.50 C 54.25 47.51 56.61 47.50 58.96 47.50 C 58.18 45.01 57.40 42.52 56.59 40.04 C 56.01 40.04 54.83 40.04 54.25 40.04 Z" />
<path fill="#535a5e" opacity="1.00" d=" M 71.68 31.61 C 80.30 30.92 89.06 31.19 97.71 31.47 C 99.07 33.91 98.07 37.11 98.18 39.84 C 95.49 39.90 92.81 39.91 90.12 39.93 C 90.11 47.73 90.16 55.54 90.09 63.35 C 86.71 63.39 83.02 64.26 79.82 63.02 C 79.35 55.34 79.77 47.61 79.63 39.91 C 76.99 39.91 74.36 39.91 71.72 39.91 C 71.43 37.16 71.15 34.35 71.68 31.61 Z" />
<path fill="#535a5e" opacity="1.00" d=" M 108.67 31.53 C 113.74 31.04 118.87 31.19 123.96 31.37 C 125.88 31.26 125.22 33.83 125.40 34.99 C 125.40 36.58 125.28 38.18 125.18 39.77 C 120.77 39.85 116.35 39.77 111.94 39.95 C 112.12 40.55 112.49 41.74 112.68 42.33 C 116.94 43.80 122.47 42.61 125.73 46.36 C 127.64 49.53 126.96 53.54 126.83 57.07 C 126.58 60.99 122.66 63.45 119.00 63.50 C 113.48 63.61 107.94 63.76 102.44 63.41 C 101.31 60.86 102.05 57.93 102.09 55.23 C 106.78 54.93 111.47 55.27 116.15 54.99 C 116.45 54.19 116.70 53.38 116.93 52.56 C 112.94 51.70 108.64 51.84 104.91 50.04 C 101.03 47.85 101.92 42.70 101.92 38.97 C 101.75 35.13 104.92 31.88 108.67 31.53 Z" />
<path fill="#535a5e" opacity="1.00" d=" M 131.86 34.98 C 132.13 33.91 131.38 31.37 133.11 31.39 C 139.11 31.23 145.19 30.93 151.16 31.64 C 157.35 32.44 157.90 41.14 154.44 45.07 C 156.36 45.87 158.63 46.81 159.03 49.13 C 159.66 52.34 159.64 55.70 159.06 58.91 C 158.34 62.13 154.84 63.48 151.87 63.53 C 145.29 63.66 138.71 63.58 132.14 63.52 C 131.57 54.02 132.02 44.49 131.86 34.98 M 141.95 38.87 C 141.95 40.53 141.95 42.19 141.96 43.86 C 143.57 43.78 145.20 43.78 146.81 43.53 C 148.02 42.41 147.14 40.50 147.37 39.06 C 145.56 38.99 143.76 38.91 141.95 38.87 M 141.96 50.64 C 141.95 52.40 141.95 54.17 141.95 55.93 C 144.40 55.93 146.85 55.90 149.30 55.85 C 149.38 54.17 149.41 52.48 149.41 50.79 C 146.92 50.70 144.44 50.65 141.96 50.64 Z" />
<path fill="#535a5e" opacity="1.00" d=" M 162.53 31.49 C 165.85 31.17 169.19 31.17 172.51 31.49 C 172.79 36.37 171.37 42.14 175.50 45.84 C 176.89 46.86 177.66 45.44 178.34 44.40 C 181.30 40.70 179.70 35.71 180.31 31.39 C 183.37 31.27 186.46 31.02 189.51 31.49 C 190.58 35.46 190.05 39.84 189.80 43.93 C 188.18 48.70 183.91 51.98 181.66 56.42 C 181.38 58.60 181.56 60.81 181.33 62.99 C 178.15 64.27 174.45 63.40 171.07 63.35 C 171.03 60.97 170.98 58.59 170.99 56.20 C 168.30 52.21 164.71 48.73 162.74 44.30 C 162.07 40.07 162.49 35.75 162.53 31.49 Z" />
<path fill="#535a5e" opacity="1.00" d=" M 101.18 91.14 C 101.95 90.36 102.32 88.26 103.83 89.01 C 103.26 94.09 101.56 98.95 100.81 104.00 C 104.70 103.51 108.53 102.64 112.43 102.17 C 111.18 106.80 107.98 110.52 105.72 114.66 C 102.75 119.23 100.47 124.29 96.85 128.40 C 96.55 122.61 99.61 117.31 100.33 111.63 C 96.43 112.21 92.56 113.05 88.62 113.37 C 92.33 105.70 97.06 98.59 101.18 91.14 Z" />
<path fill="#535a5e" opacity="1.00" d=" M 46.49 102.73 C 48.74 102.76 50.98 102.78 53.22 102.88 C 51.95 104.49 50.08 105.17 48.32 106.06 C 49.05 106.25 50.51 106.64 51.24 106.84 C 50.35 107.39 48.57 108.49 47.69 109.04 C 49.39 109.00 51.10 108.98 52.80 108.98 C 51.44 111.54 48.48 110.74 46.12 110.81 C 46.23 108.12 46.44 105.43 46.49 102.73 Z" />
<path fill="#535a5e" opacity="1.00" d=" M 53.36 104.33 C 54.66 101.99 57.76 102.58 59.94 102.70 L 60.18 102.14 C 60.06 103.33 59.94 104.52 59.81 105.72 C 58.53 105.24 57.26 104.76 55.98 104.28 C 55.93 104.49 55.81 104.90 55.76 105.10 C 57.32 106.01 59.97 106.54 59.81 108.88 C 58.52 111.76 52.84 111.95 52.55 108.23 C 54.15 108.58 55.76 108.92 57.38 109.20 C 55.81 107.91 52.42 107.03 53.36 104.33 Z" />
<path fill="#535a5e" opacity="1.00" d=" M 60.82 105.80 C 60.85 104.67 60.89 103.54 60.93 102.41 C 63.27 102.72 65.63 102.82 67.99 103.02 C 67.05 104.02 66.02 104.92 64.89 105.70 C 64.64 107.47 64.45 109.24 64.29 111.02 C 63.72 110.93 62.58 110.75 62.01 110.66 C 62.11 108.50 62.22 106.35 62.34 104.20 L 60.82 105.80 Z" />
<path fill="#535a5e" opacity="1.00" d=" M 128.37 104.00 C 130.26 102.85 133.00 101.89 134.62 104.03 C 134.73 106.02 133.06 107.36 132.12 108.91 C 132.95 108.77 134.61 108.50 135.44 108.37 C 134.52 112.19 130.20 110.36 127.42 110.64 C 127.95 107.75 131.57 107.46 132.43 104.69 C 131.55 105.02 129.77 105.67 128.88 106.00 C 128.73 105.33 128.56 104.66 128.37 104.00 Z" />
<path fill="#535a5e" opacity="1.00" d=" M 136.83 104.86 C 137.63 103.18 139.70 103.06 141.19 102.32 C 142.17 103.68 143.95 104.90 143.58 106.81 C 143.49 109.05 141.48 111.31 139.10 110.90 C 136.27 110.68 135.58 106.95 136.83 104.86 M 139.91 110.02 C 140.66 108.19 142.44 105.61 139.88 104.32 C 138.15 105.89 138.05 108.50 139.91 110.02 Z" />
<path fill="#535a5e" opacity="1.00" d=" M 145.03 105.98 C 145.05 102.68 149.47 101.55 151.36 104.06 C 151.46 106.02 149.86 107.31 148.79 108.74 C 149.66 108.70 151.41 108.61 152.28 108.56 C 151.08 112.04 147.12 110.31 144.39 110.73 C 144.08 107.58 149.25 107.73 148.54 104.34 C 147.37 104.89 146.20 105.43 145.03 105.98 Z" />
<path fill="#535a5e" opacity="1.00" d=" M 155.25 103.21 C 157.73 101.56 160.98 104.29 160.29 107.03 C 160.20 109.77 157.00 111.95 154.51 110.47 C 152.09 108.75 152.67 104.51 155.25 103.21 M 155.92 110.03 C 157.34 108.71 158.48 107.00 157.85 104.98 C 154.69 103.56 155.11 108.29 155.92 110.03 Z" />
<path fill="#535a5e" opacity="1.00" d=" M 67.93 107.89 C 69.10 108.51 70.98 108.98 69.78 110.65 C 67.46 112.04 67.56 109.40 67.93 107.89 Z" />
<path fill="#535a5e" opacity="1.00" d=" M 157.27 125.32 C 158.71 123.82 160.19 122.34 161.67 120.88 C 163.75 122.95 166.28 124.69 167.78 127.26 C 169.10 131.49 168.57 136.60 172.79 139.34 C 171.30 140.95 169.76 142.52 168.18 144.06 C 167.06 143.03 166.00 141.91 164.72 141.07 C 161.75 140.14 158.49 140.52 155.56 139.42 C 153.22 137.84 151.36 135.67 149.34 133.73 C 150.78 132.13 152.27 130.57 153.80 129.05 C 156.33 131.57 158.94 134.46 162.86 134.32 C 162.90 130.35 159.86 127.84 157.27 125.32 Z" />
<path fill="#535a5e" opacity="1.00" d=" M 33.60 128.94 C 35.34 125.67 39.40 121.34 43.39 123.71 C 46.55 126.05 48.84 129.33 51.52 132.17 C 50.16 133.41 48.76 134.60 47.36 135.80 C 45.30 133.48 43.35 130.97 40.64 129.36 C 40.90 133.17 45.70 135.89 44.19 139.82 C 42.16 142.65 38.44 146.67 34.70 144.19 C 31.32 141.61 28.80 138.10 25.93 135.00 C 27.25 133.79 28.59 132.58 29.93 131.40 C 32.31 133.92 34.46 136.74 37.42 138.63 C 37.16 135.00 33.34 132.63 33.60 128.94 Z" />
<path fill="#535a5e" opacity="1.00" d=" M 133.76 141.94 C 138.15 139.57 142.56 137.23 147.04 135.01 C 147.88 136.63 148.71 138.25 149.52 139.89 C 147.06 141.20 144.58 142.49 142.11 143.78 C 142.45 144.45 143.13 145.79 143.47 146.46 C 145.30 145.52 147.15 144.63 149.00 143.73 C 149.81 145.36 150.62 146.99 151.40 148.63 C 149.63 149.58 147.86 150.52 146.09 151.45 C 147.13 153.40 148.18 155.36 149.22 157.31 C 147.30 158.41 145.36 159.45 143.37 160.41 C 140.15 154.26 136.88 148.14 133.76 141.94 Z" />
<path fill="#535a5e" opacity="1.00" d=" M 45.64 153.63 C 48.64 147.50 51.67 141.37 55.05 135.44 C 57.18 135.49 59.01 137.14 60.94 138.00 C 59.87 140.19 58.77 142.36 57.66 144.54 C 59.08 145.28 60.50 146.02 61.92 146.77 C 63.07 144.59 64.24 142.42 65.50 140.30 C 67.37 141.28 69.23 142.27 71.09 143.28 C 68.01 149.52 64.85 155.73 61.48 161.82 C 59.58 160.85 57.69 159.86 55.80 158.86 C 56.88 156.61 58.01 154.39 59.15 152.18 C 57.72 151.44 56.29 150.70 54.85 149.96 C 53.69 152.18 52.53 154.38 51.29 156.55 C 49.40 155.59 47.52 154.62 45.64 153.63 Z" />
<path fill="#535a5e" opacity="1.00" d=" M 116.20 146.76 C 120.82 145.54 125.44 144.35 130.09 143.26 C 130.57 144.98 131.04 146.71 131.50 148.44 C 130.26 148.84 129.02 149.25 127.79 149.65 C 128.58 152.77 129.38 155.89 130.16 159.01 C 131.42 158.75 132.69 158.50 133.96 158.25 C 134.38 160.00 134.79 161.76 135.18 163.52 C 130.55 164.71 125.94 165.93 121.28 166.99 C 120.81 165.21 120.42 163.42 120.02 161.64 C 120.93 161.41 122.77 160.96 123.68 160.73 C 122.90 157.57 122.11 154.42 121.31 151.27 C 120.03 151.55 118.75 151.82 117.47 152.09 C 117.03 150.31 116.60 148.54 116.20 146.76 Z" />
<path fill="#535a5e" opacity="1.00" d=" M 77.41 145.59 C 80.99 144.78 84.80 145.55 88.15 146.90 C 90.19 147.71 92.14 149.61 91.78 151.99 C 91.26 156.22 90.46 160.46 89.29 164.56 C 87.86 168.16 83.17 167.70 80.06 167.14 C 76.99 166.48 72.85 165.56 72.00 162.02 C 71.99 158.31 73.03 154.69 73.69 151.06 C 74.06 148.83 74.87 146.14 77.41 145.59 M 80.51 151.02 C 79.71 154.37 79.11 157.77 78.68 161.19 C 80.15 161.17 81.91 162.16 83.24 161.33 C 84.30 158.26 84.62 154.99 85.18 151.80 C 83.63 151.50 82.07 151.23 80.51 151.02 Z" />
<path fill="#535a5e" opacity="1.00" d=" M 96.70 147.94 C 101.10 147.86 105.55 147.16 109.94 147.83 C 112.76 148.30 113.72 151.41 113.72 153.90 C 113.84 156.51 114.18 159.95 111.60 161.55 C 109.23 162.78 106.44 162.53 103.86 162.80 C 103.74 164.68 104.30 166.75 103.56 168.53 C 101.53 168.81 99.48 168.75 97.44 168.76 C 97.16 161.82 96.80 154.88 96.70 147.94 M 103.37 153.06 C 103.43 154.56 103.48 156.06 103.55 157.57 C 104.53 157.47 106.50 157.29 107.48 157.20 C 107.40 155.82 107.31 154.44 107.21 153.07 C 106.25 153.07 104.33 153.06 103.37 153.06 Z" />
</g>
</svg>
